<svg width="16" height="16" viewBox="0 0 16 16" fill="none" xmlns="http://www.w3.org/2000/svg">
<g id="Linear / Business, Statistic / Pie Chart 3" clip-path="url(#clip0_142_4108)">
<path id="Vector" d="M4.29618 2.45679C4.64741 2.2221 5.01842 2.02247 5.40383 1.85952C6.3391 1.4641 6.80673 1.26638 7.40336 1.66189C7.99998 2.0574 7.99998 2.70491 7.99998 3.99992V5.33325C7.99998 6.59033 7.99998 7.21887 8.39051 7.60939C8.78103 7.99992 9.40957 7.99992 10.6666 7.99992H12C13.295 7.99992 13.9425 7.99992 14.338 8.59654C14.7335 9.19316 14.5358 9.6608 14.1404 10.5961C13.9774 10.9815 13.7778 11.3525 13.5431 11.7037C12.8106 12.8 11.7694 13.6545 10.5512 14.1591C9.33303 14.6637 7.99259 14.7957 6.69938 14.5385C5.40617 14.2812 4.21829 13.6463 3.28594 12.714C2.35359 11.7816 1.71865 10.5937 1.46141 9.30052C1.20418 8.00731 1.3362 6.66687 1.84079 5.44869C2.34537 4.23052 3.19985 3.18933 4.29618 2.45679Z" stroke="#5F5F5F" strokeWidth="1.5"/>
<path id="Vector_2" d="M9.66669 1.54297C12.0094 2.14593 13.8537 3.99026 14.4567 6.33294" stroke="#5F5F5F" strokeWidth="1.5" strokeLinecap="round"/>
</g>
<defs>
<clipPath id="clip0_142_4108">
<rect width="16" height="16" fill="white"/>
</clipPath>
</defs>
</svg>
