<svg width="24" height="24" viewBox="0 0 24 24" fill="none" xmlns="http://www.w3.org/2000/svg">
<path d="M4 6V19C4 20.6569 5.34315 22 7 22H17C18.6569 22 20 20.6569 20 19V9C20 7.34315 18.6569 6 17 6H4ZM4 6V5" stroke="#5F5F5F" strokeWidth="1.5"/>
<circle cx="12" cy="13" r="3" stroke="#5F5F5F" strokeWidth="1.5"/>
<path d="M18 5.99904V6.74904H18.75V5.99904H18ZM15.7172 2.32516L15.6111 1.5827L15.7172 2.32516ZM4.91959 3.86767L4.81353 3.12521H4.81353L4.91959 3.86767ZM5.07107 6.74904H18V5.24904H5.07107V6.74904ZM18.75 5.99904V4.30506H17.25V5.99904H18.75ZM15.6111 1.5827L4.81353 3.12521L5.02566 4.61014L15.8232 3.06763L15.6111 1.5827ZM4.81353 3.12521C3.91638 3.25338 3.25 4.02172 3.25 4.92798H4.75C4.75 4.7682 4.86749 4.63273 5.02566 4.61014L4.81353 3.12521ZM18.75 4.30506C18.75 2.63155 17.2678 1.34603 15.6111 1.5827L15.8232 3.06763C16.5763 2.96005 17.25 3.54438 17.25 4.30506H18.75ZM5.07107 5.24904C4.89375 5.24904 4.75 5.1053 4.75 4.92798H3.25C3.25 5.93372 4.06532 6.74904 5.07107 6.74904V5.24904Z" fill="#5F5F5F"/>
<path d="M10 19H14" stroke="#080808" strokeWidth="1.5" strokeLinecap="round"/>
</svg>
