<svg width="176" height="44" viewBox="0 0 176 44" fill="none" xmlns="http://www.w3.org/2000/svg">
<g clip-path="url(#clip0_142_4836)">
<path d="M5.41289 16.8398V32.0441C5.41289 33.3505 6.32846 33.873 7.45531 33.2198L15.0817 28.8183C18.1503 27.0497 18.1503 24.1857 15.0817 22.4171L5.40283 16.8398H5.41289Z" fill="#878787"/>
<path d="M15.8463 43.1383L13.4518 41.7616L5.4129 37.1591L8.81358 35.2096L16.8223 30.587C18.0497 29.9037 18.2409 29.2505 18.4421 28.748V41.6511C18.4421 43.2991 17.2851 43.9724 15.8564 43.1484L15.8463 43.1383Z" fill="#006E7E"/>
<path d="M14.7698 2.53015L11.3792 4.48972L0 11.0015L4.80924 13.755L16.1482 20.2969C17.8787 21.2616 18.1503 22.1861 18.4321 22.9097V4.64045C18.4321 2.30907 16.7921 1.35441 14.7698 2.53015Z" fill="#F9C416"/>
<path d="M56.8658 17.433H51.5836V13.4435C51.5836 11.6146 51.1711 10.258 50.3361 9.37366C49.4004 8.3788 47.8711 7.8864 45.7482 7.8864C43.9372 7.8864 42.2469 8.04718 40.6874 8.36875V17.4431H38.9669C36.6629 17.4431 35.033 17.021 34.0772 16.1668C33.1616 15.373 32.7089 14.0565 32.7089 12.2276C32.7089 10.7102 33.0007 9.32342 33.5741 8.06728L30.0125 8.65013C29.5799 9.84597 29.3585 11.1724 29.3585 12.6095C29.3585 15.0413 30.0427 16.8602 31.4211 18.0661C32.9302 19.4026 35.3349 20.0759 38.6349 20.0759H43.907V10.6499C44.4603 10.5494 45.0137 10.4992 45.5671 10.4992C46.6134 10.4992 47.3378 10.7403 47.7503 11.2327C48.1628 11.7251 48.3641 12.5793 48.3641 13.7953V20.0458H60.2061V2.28906H56.8758V17.4431L56.8658 17.433Z" fill="#131437"/>
<path d="M64.0595 9.80512C62.993 10.9507 62.4598 12.4279 62.4598 14.2066C62.4598 18.1057 64.7135 20.0552 69.2209 20.0552H71.1929V20.437C71.1929 22.6679 69.734 23.7834 66.8163 23.7834C65.5083 23.7834 64.2004 23.6427 62.8823 23.3513L62.6711 26.0746C63.969 26.2957 65.2467 26.4062 66.5144 26.4062C69.1907 26.4062 71.213 25.7932 72.5813 24.5572C73.8088 23.4618 74.4225 21.9745 74.4225 20.1054V8.76001C72.8831 8.17717 71.1325 7.88574 69.1505 7.88574C66.9571 7.88574 65.2568 8.52888 64.0595 9.80512ZM71.1929 17.4324H69.5831C67.0577 17.4324 65.79 16.2566 65.79 13.8951C65.79 12.8902 66.0516 12.0863 66.5949 11.4532C67.1382 10.81 67.8727 10.4885 68.7983 10.4885C69.7239 10.4885 70.559 10.6392 71.2029 10.9407V17.4123L71.1929 17.4324Z" fill="#131437"/>
<path d="M86.8178 17.4328H79.0104V20.0556H90.138V2.71094H86.8178V17.4328Z" fill="#131437"/>
<path d="M84.9666 15.5435L82.3205 6.34863H78.8896L81.586 15.5435H84.9666Z" fill="#131437"/>
<path d="M83.3971 3.776H81.8577C80.7812 3.776 80.2479 3.50467 80.2479 2.96202C80.2479 2.47967 80.6303 2.23849 81.3848 2.23849C81.9382 2.23849 82.3608 2.27869 82.6525 2.35908L82.9544 0.650736C82.6022 0.550245 82.0992 0.5 81.4653 0.5C80.3284 0.5 79.4531 0.751227 78.8192 1.23358C78.2558 1.68579 77.964 2.25859 77.964 2.95197C77.964 3.37404 78.0848 3.67551 78.3363 3.86644C78.0244 3.7961 77.5918 3.76595 77.0585 3.76595V5.50444H83.4172V3.76595L83.3971 3.776Z" fill="#131437"/>
<path d="M98.1366 2.28906H94.8064V20.0659H98.1366V2.28906Z" fill="#131437"/>
<path d="M127.616 17.433H120.472V2.28906H117.142V18.3977C117.142 21.6436 116.086 23.2615 113.983 23.2615C111.679 23.2615 110.522 21.6436 110.522 18.3977C110.522 16.8502 110.763 15.2323 111.236 13.5641L107.795 14.1872C107.393 15.6443 107.192 17.1516 107.192 18.6892C107.192 23.4625 109.365 25.8541 113.701 25.8541C117.585 25.8541 119.798 23.9247 120.342 20.0558H130.936V8.20797H127.606V17.4431L127.616 17.433Z" fill="#131437"/>
<path d="M125.02 22.126C124.557 22.126 124.165 22.2968 123.833 22.6284C123.511 22.9701 123.35 23.3721 123.35 23.8343C123.35 24.2966 123.511 24.7287 123.833 25.0503C124.155 25.3819 124.547 25.5427 125.02 25.5427C125.493 25.5427 125.895 25.3718 126.227 25.0402C126.549 24.7086 126.71 24.3066 126.71 23.8343C126.71 23.362 126.549 22.95 126.227 22.6184C125.895 22.2868 125.493 22.126 125.02 22.126Z" fill="#131437"/>
<path d="M129.206 22.126C128.743 22.126 128.35 22.2968 128.018 22.6284C127.696 22.9701 127.535 23.3721 127.535 23.8343C127.535 24.2966 127.696 24.7287 128.018 25.0503C128.34 25.3819 128.733 25.5427 129.206 25.5427C129.678 25.5427 130.061 25.3718 130.393 25.0402C130.715 24.6985 130.876 24.3066 130.876 23.8343C130.876 23.362 130.715 22.95 130.393 22.6184C130.071 22.2868 129.678 22.126 129.206 22.126Z" fill="#131437"/>
<path d="M173.877 3.36378C173.555 3.02211 173.163 2.86133 172.69 2.86133C172.217 2.86133 171.835 3.03216 171.503 3.36378C171.181 3.6954 171.02 4.10741 171.02 4.57972C171.02 5.05203 171.181 5.45399 171.503 5.78561C171.825 6.12728 172.217 6.28806 172.69 6.28806C173.163 6.28806 173.545 6.11723 173.877 5.78561C174.199 5.45399 174.36 5.05203 174.36 4.57972C174.36 4.10741 174.199 3.68535 173.877 3.36378Z" fill="#131437"/>
<path d="M168.504 6.29783C168.977 6.29783 169.38 6.12699 169.712 5.79538C170.034 5.46376 170.195 5.06179 170.195 4.58949C170.195 4.11718 170.034 3.69512 169.712 3.37355C169.38 3.03188 168.977 2.87109 168.504 2.87109C168.032 2.87109 167.649 3.04193 167.317 3.37355C166.995 3.70517 166.834 4.11718 166.834 4.58949C166.834 5.06179 166.995 5.46376 167.317 5.79538C167.639 6.13704 168.032 6.29783 168.504 6.29783Z" fill="#131437"/>
<path d="M169.42 17.4326H163.756V13.6743C163.756 9.8054 161.854 7.87598 158.051 7.87598C155.968 7.87598 154.318 8.49902 153.121 9.73506C152.034 10.8706 151.491 12.2875 151.491 13.9959C151.491 15.2721 151.229 16.1665 150.716 16.6991C150.243 17.1814 149.519 17.4226 148.533 17.4226H146.531V8.7603C144.991 8.17745 143.231 7.88603 141.259 7.88603C139.065 7.88603 137.365 8.52917 136.168 9.8054C135.101 10.951 134.568 12.4282 134.568 14.2069C134.568 18.1059 136.822 20.0555 141.329 20.0555H143.301V20.4373C143.301 22.6682 141.842 23.7837 138.925 23.7837C137.617 23.7837 136.309 23.643 134.991 23.3516L134.779 26.0749C136.077 26.2959 137.355 26.4065 138.623 26.4065C141.299 26.4065 143.321 25.7935 144.69 24.5574C145.917 23.4621 146.531 21.9748 146.531 20.1057V20.0555H148.996C151.109 20.0354 152.417 19.3822 152.92 18.0858C153.976 19.4023 155.858 20.0555 158.574 20.0555H172.74V8.2076H169.41V17.4427L169.42 17.4326ZM143.301 17.4326H141.691C139.156 17.4326 137.898 16.2569 137.898 13.8954C137.898 12.8905 138.16 12.0865 138.703 11.4534C139.247 10.8103 139.981 10.4887 140.907 10.4887C141.832 10.4887 142.667 10.6395 143.311 10.9409V17.4126L143.301 17.4326ZM160.506 17.4326H158.584C156.059 17.4326 154.801 16.2569 154.801 13.8954C154.801 12.8905 155.063 12.0865 155.586 11.4534C156.139 10.8103 156.874 10.4887 157.799 10.4887C159.6 10.4887 160.496 11.6846 160.496 14.0662V17.4126L160.506 17.4326Z" fill="#131437"/>
<path d="M29.7911 30.9785H38.6349V32.8677H35.2946V41.3291H33.1214V32.8677H29.8012V30.9785H29.7911Z" fill="#878787"/>
<path d="M45.3658 30.9785L49.3299 41.3291H47.1366L46.211 38.8369H42.3274L41.4118 41.3291H39.2487L43.2128 30.9785H45.3558H45.3658ZM43.0015 37.018H45.5369L44.2692 33.5812L43.0015 37.018Z" fill="#878787"/>
<path d="M56.1816 41.3291L53.616 34.566V41.3291H51.5937V30.9785H54.1593L56.9261 38.2741L59.6728 30.9785H62.2082V41.3291H60.1658V34.566L57.6505 41.3291H56.1816Z" fill="#878787"/>
<path d="M71.7965 30.9785L73.5874 37.9425L75.2878 30.9785H77.4107L74.7143 41.3291H72.7423L70.9212 34.5057L69.1001 41.3291H67.1282L64.4318 30.9785H66.605L68.2952 37.9425L70.1163 30.9785H71.8066H71.7965Z" fill="#878787"/>
<path d="M86.6669 30.9785V32.8677H81.7571V35.1288H86.2142V36.9678H81.7571V39.4298H86.6669V41.3391H79.6342V30.9886H86.6669V30.9785Z" fill="#878787"/>
<path d="M96.386 30.9785V32.8677H91.4762V35.1288H95.9333V36.9678H91.4762V39.4298H96.386V41.3391H89.3533V30.9886H96.386V30.9785Z" fill="#878787"/>
<path d="M99.0723 30.9785H101.235V39.4197H106.065V41.3291H99.0824V30.9785H99.0723Z" fill="#878787"/>
<path d="M118.601 30.9785L122.565 41.3291H120.372L119.446 38.8369H115.563L114.647 41.3291H112.484L116.448 30.9785H118.591H118.601ZM116.237 37.018H118.772L117.504 33.5812L116.237 37.018Z" fill="#878787"/>
<path d="M124.829 30.9785H126.992V39.4197H131.821V41.3291H124.839V30.9785H124.829Z" fill="#878787"/>
<path d="M138.351 41.4998C135.464 41.4998 133.461 39.2388 133.461 36.1537C133.461 33.0687 135.474 30.8076 138.351 30.8076C141.229 30.8076 143.261 33.0486 143.261 36.1537C143.261 39.2589 141.239 41.4998 138.351 41.4998ZM138.351 32.737C136.711 32.737 135.655 34.1339 135.655 36.1638C135.655 38.1937 136.721 39.5905 138.351 39.5905C139.981 39.5905 141.088 38.1937 141.088 36.1638C141.088 34.1339 140.011 32.737 138.351 32.737Z" fill="#878787"/>
<path d="M145.625 37.1687V30.9785H147.789V36.9477C147.789 38.7163 148.563 39.5604 149.932 39.5604C151.3 39.5604 152.075 38.7163 152.075 36.9477V30.9785H154.238V37.1687C154.238 40.0126 152.537 41.4999 149.932 41.4999C147.326 41.4999 145.625 40.0126 145.625 37.1687Z" fill="#878787"/>
<path d="M157.085 30.9785H159.248V39.4197H164.078V41.3291H157.095V30.9785H157.085Z" fill="#878787"/>
<path d="M172.036 30.9785L176 41.3291H173.807L172.881 38.8369H168.997L168.082 41.3291H165.919L169.883 30.9785H172.026H172.036ZM169.672 37.018H172.207L170.939 33.5812L169.672 37.018Z" fill="#878787"/>
</g>
<defs>
<clipPath id="clip0_142_4836">
<rect width="176" height="43" fill="white" transform="translate(0 0.5)"/>
</clipPath>
</defs>
</svg>
