<svg width="16" height="16" viewBox="0 0 16 16" fill="none" xmlns="http://www.w3.org/2000/svg">
<g clip-path="url(#clip0_498_10)">
<path d="M1.33334 10.6667C1.33334 8.78113 1.33334 7.83832 1.91913 7.25253C2.50492 6.66675 3.44773 6.66675 5.33334 6.66675H10.6667C12.5523 6.66675 13.4951 6.66675 14.0809 7.25253C14.6667 7.83832 14.6667 8.78113 14.6667 10.6667C14.6667 12.5524 14.6667 13.4952 14.0809 14.081C13.4951 14.6667 12.5523 14.6667 10.6667 14.6667H5.33334C3.44773 14.6667 2.50492 14.6667 1.91913 14.081C1.33334 13.4952 1.33334 12.5524 1.33334 10.6667Z" stroke="#00424C" strokeWidth="1.5"/>
<path d="M4 6.66658V5.33325C4 3.12411 5.79086 1.33325 8 1.33325C10.2091 1.33325 12 3.12411 12 5.33325V6.66658" stroke="#00424C" strokeWidth="1.5" strokeLinecap="round"/>
<path d="M5.33334 10.6667H5.33934M7.99401 10.6667H8.00001M10.6607 10.6667H10.6667" stroke="#00424C" strokeWidth="2" strokeLinecap="round" strokeLinejoin="round"/>
</g>
<defs>
<clipPath id="clip0_498_10">
<rect width="16" height="16" fill="white"/>
</clipPath>
</defs>
</svg>
